PathFileType	4	(X/Y/Z)	Patient4_TMGait_0pt7_01_left_03.trc.trc
DataRate	CameraRate	NumFrames	NumMarkers	Units	OrigDataRate	OrigDataStartFrame	OrigNumFrames
83.832335329341	83.832335329341	4	33	mm	83.832335329341	89	       141
Frame#	Time	Sacral			L.Shoulder			Chest			R.Shoulder			Neck			R.ASIS			L.ASIS			R.Thigh.Superior			R.Thigh.Lateral			R.Thigh.Inferior			R.Patella			L.Thigh.Superior			L.Thigh.Lateral			L.Thigh.Inferior			L.Patella			L.Shank.Superior			L.Shank.Lateral			L.Shank.Inferior			R.Shank.Superior			R.Shank.Lateral			R.Shank.Inferior			R.Heel			R.Midfoot.Superior			R.Midfoot.Lateral			R.Toe			L.Heel			L.Midfoot.Lateral			L.Midfoot.Superior			L.Toe			L.Elbow			L.Wrist			R.Elbow			R.Wrist			
		X1	Y1	Z1	X2	Y2	Z2	X3	Y3	Z3	X4	Y4	Z4	X5	Y5	Z5	X6	Y6	Z6	X7	Y7	Z7	X8	Y8	Z8	X9	Y9	Z9	X10	Y10	Z10	X11	Y11	Z11	X12	Y12	Z12	X13	Y13	Z13	X14	Y14	Z14	X15	Y15	Z15	X16	Y16	Z16	X17	Y17	Z17	X18	Y18	Z18	X19	Y19	Z19	X20	Y20	Z20	X21	Y21	Z21	X22	Y22	Z22	X23	Y23	Z23	X24	Y24	Z24	X25	Y25	Z25	X26	Y26	Z26	X27	Y27	Z27	X28	Y28	Z28	X29	Y29	Z29	X30	Y30	Z30	X31	Y31	Z31	X32	Y32	Z32	X33	Y33	Z33	

89	4.499714285714	697.333271305149	1001.529345894318	544.866631559204	889.962353081134	1438.157622149100	386.423957506593	983.463315143001	1355.989355781987	549.273788408433	892.274883141229	1427.800702310660	720.646500488950	888.197814490654	1490.798672603035	545.004964486011	921.640879525040	944.097307582632	670.482589066668	916.347423722527	958.856769478696	394.603853239108	975.360915542141	748.783951279489	652.542059066742	894.836008283147	635.277932529762	702.346508943396	984.265757702227	589.533821924908	631.357303491229	989.433126461693	502.127148483142	637.336028747040	968.191161914344	750.144004795028	414.784939216178	892.367572205748	631.214360240511	342.784335999765	985.307020088406	550.714336483334	397.378628403263	980.410472725667	461.827337714895	391.742092003367	906.337006586903	404.450740281154	389.345841525981	760.145288112769	374.614954735364	346.148550837300	737.542137319928	248.983403172602	405.619415122013	968.166936219186	411.835645599915	641.919722991819	898.210458537631	301.217410824096	692.737587407959	958.574602538869	212.064064467624	635.453898498896	844.379212587267	42.126081522342	586.316472612199	1011.147871401997	100.395261818421	636.575522551370	922.072591915299	34.964652633059	666.954907925388	1129.572775181953	51.052148747577	670.689096744781	541.633764279780	199.405023260625	451.548537395189	593.261344343197	152.083250710867	368.192823417891	699.970830838455	152.985826857592	385.600431264773	769.372171304526	39.544617306949	352.159367030832	838.456475126563	1098.724320760171	254.501445937790	1047.127891973988	948.992262234062	276.224061642300	832.380777502820	1077.348620869343	823.198726200942	902.920461270304	824.666054961903	821.981417306435	
90	4.511642857143	696.040674436686	1002.934175891462	547.752692619667	888.345130952452	1439.217621868085	388.664263545208	983.188569604035	1356.467618177399	550.406342294950	894.002431284701	1428.165321647313	722.918476978671	888.262100439033	1491.649996081665	547.454633805752	920.455272015913	945.047964999825	672.329682568824	914.141138732389	959.470448712863	396.401553940445	971.279037433245	748.286617005017	655.140763624441	889.111539831554	635.653125493057	704.285001012816	977.972935318183	588.934284483960	633.319479677691	981.806579207887	501.791559997284	639.123609392666	970.759569789506	754.549173429858	415.828972526397	898.627060287493	634.269285043755	342.710732870587	994.262394659094	555.972433339929	396.391391139048	991.523023203310	466.449426724467	390.125660452516	917.392871633903	408.218735931327	388.465659202186	770.431989425791	379.307120710162	347.030448735723	747.894264943329	253.653238555009	406.416444092889	960.340705061901	411.713627448920	643.444487297138	889.795771752361	301.249289826869	693.780256413013	950.131067469729	212.033860568071	636.420453563607	835.850560605583	42.142919444977	586.543842131246	1002.701433450879	100.417442625293	636.973239037055	913.548548532037	34.857204212300	667.263602501578	1121.059708813479	51.012914632364	670.790882446857	552.278439719656	205.367755035909	454.669791269741	602.532652871949	158.013705566332	370.395317432694	709.511392516438	157.856824286160	386.579949888148	777.529070026972	42.381589129584	351.512964173741	830.119892149687	1099.881791866393	258.610674449202	1029.529155430821	936.830410555702	278.161763391859	844.775450016267	1076.494588321832	827.807195740436	927.239911390766	827.335171995174	826.272503634506	
91	4.523571428571	694.671198604493	1004.170827436729	550.476835452597	886.712471728675	1440.115139607550	390.754543343628	982.816370773743	1356.817082235818	551.432055938162	895.624451812889	1428.469980591984	725.042560217724	888.280963366654	1492.380769237282	549.727520048279	919.167979027555	945.816748555761	674.156406558679	911.920983880086	960.065894862048	398.254844352150	967.263538808324	747.818167384561	657.268827889813	883.678305425935	636.009811760122	706.055237778610	971.871079165951	588.347918743572	635.019784475503	974.458304840143	501.455477903964	640.718612542957	972.988116577357	759.030370364044	416.782512988662	904.292611823019	637.630199979292	342.553582137851	1002.471994270906	561.567577331023	395.305798014357	1001.999254500442	471.577250284059	388.410027393816	928.237536480010	412.277307216251	387.413154438742	780.831246200697	383.138840879052	347.652520228435	759.363907259282	257.274841649124	406.876320913579	952.762277073984	411.567673273389	644.773211292721	881.626024394541	301.300502398569	694.700330200369	941.843479536515	211.981906506204	637.240901992442	827.321148726375	42.175981253368	586.742073893157	994.269609623502	100.402492198202	637.297318483121	905.033451198334	34.790244480647	667.561008949756	1112.563774493584	50.924068912020	670.876373176239	564.545390365505	208.394915772566	457.325862923970	613.912446102992	161.557567289317	372.189705490555	721.010745555040	161.510091790468	387.185004986538	788.819833315611	45.304487446721	350.606095586342	822.065971427707	1101.021119945852	262.509896626024	1010.963350420464	924.906646314213	279.975697582554	857.212490126230	1075.970460243854	832.200147338716	951.696572969171	831.029333284967	830.223225844200	
92	4.535500000000	693.236353587566	1005.247584945878	553.050121273975	885.082580463030	1440.864426601175	392.706591629529	982.356519371672	1357.058179769959	552.371844595547	897.125169745090	1428.742698842969	727.024412235572	888.260381123093	1492.999139098312	551.830591182424	917.818490093400	946.418648381731	675.949322355157	909.690752077945	960.660073565080	400.139098534534	963.359264976628	747.375635340629	658.949723504128	878.534904140883	636.342313276357	707.645896161180	965.990753855947	587.771836465180	636.476955724214	967.416785662588	501.112327850827	642.115183246268	974.860866255035	763.526520146173	417.685798501643	909.388271234789	641.197491039944	342.363419496883	1009.957409635232	567.392936702032	394.205167986495	1011.830236583764	477.114251083606	386.683917950988	938.852637034747	416.536863310291	386.241659995668	791.338069257216	386.024504319056	347.997009739331	771.920208486402	259.772152310908	406.952058708056	945.449015007907	411.392939371021	645.905276761699	873.712561332959	301.369984231855	695.491984412800	933.722361558462	211.907215062095	637.915098092476	818.803537406331	42.219761607625	586.907975434349	985.857725249715	100.356138642761	637.544581318388	896.539992325397	34.764086896358	667.841353774301	1104.093238089974	50.806253119645	670.953372896831	578.367639682395	208.512624248740	459.380529130163	627.326741206475	162.684316802818	373.450654888752	734.425758308870	163.828036251779	387.328706314097	803.136087380788	48.090452579463	349.360668798131	814.348044034102	1102.140046719461	266.223279925874	991.477352725043	913.358157285536	281.656419340263	869.608555277729	1075.810266179553	836.350280753977	976.196366065329	835.842955439334	833.765666790370	
